<svg width="1440" height="178" viewBox="0 0 1440 178" fill="none" xmlns="http://www.w3.org/2000/svg">
<path d="M1464.26 425.287C1464.3 400.303 1464.13 375.319 1464.23 350.327C1464.53 282.975 1465.2 215.631 1464.94 148.272C1464.86 127.948 1464.98 107.617 1464.81 87.2928C1464.73 77.893 1464.2 68.4933 1463.87 59.0935C1463.91 54.6357 1464.04 50.1706 1463.98 45.7128C1463.9 39.6943 1464.52 33.647 1463.3 27.6719C1463.54 26.1691 1463.52 24.5362 1461.72 24.2472C1458.99 23.8065 1456.3 24.0882 1454.56 26.7543C1449.93 25.5983 1445.24 25.8728 1440.54 26.1546C1439.57 25.8656 1438.55 25.685 1437.64 25.2731C1434.74 23.9799 1432.07 23.1345 1428.56 23.279C1421.21 23.5753 1413.74 22.6938 1410.15 14.3778C1409.51 12.9256 1408.11 11.7045 1406.23 12.7161C1402.35 14.7896 1398.32 16.3069 1394.01 17.3184C1389.7 18.3299 1385.35 19.2691 1381.23 17.5135C1375.67 15.1509 1369.66 15.4543 1363.99 13.8504C1359.74 12.651 1355.43 11.6034 1350.85 11.9935C1344.09 12.5643 1337.06 12.138 1330.67 10.8086C1319.65 8.51108 1308.17 11.6106 1297.44 6.95048C1292.84 4.95637 1287.88 5.32485 1282.58 6.4664C1276.32 7.81026 1269.69 8.14261 1263.48 9.89106C1253.36 12.7522 1242.97 12.8172 1232.94 11.7118C1227.68 11.1338 1224.7 12.7522 1221.25 15.1798C1218.13 17.3762 1215.15 17.2245 1211.47 16.5814C1202.57 15.0208 1193.43 12.8822 1184.69 17.434C1182.97 18.3299 1181.62 17.4629 1180.11 17.3328C1170.98 16.5598 1161.99 13.7709 1152.68 15.5844C1148.11 16.4731 1143.74 18.3082 1139.36 19.3559C1131.95 21.126 1124.04 20.8009 1116.33 21.1982C1110.07 21.5234 1103.75 20.7358 1097.55 22.2531C1096.65 22.4771 1095.38 22.86 1094.96 21.5378C1094.48 20.0278 1095.69 19.9772 1096.74 19.8616C1097.39 19.7966 1098.21 20.0278 1098.69 18.5322C1093.82 17.0005 1088.31 15.2954 1084.25 18.1204C1079.85 21.1693 1075.64 20.678 1071.16 20.8009C1068.67 20.8731 1065.94 21.4656 1063.8 21.2633C1058.95 20.8081 1054.35 18.3082 1049.26 18.4527C1049.03 18.4599 1048.63 17.8241 1048.56 17.4412C1048.35 16.2419 1047.5 16.3286 1046.62 16.2419C1041.55 15.7506 1036.52 15.1942 1031.66 13.3519C1029.49 12.5282 1025.48 11.9068 1024.98 14.0455C1023.91 18.5466 1020.62 16.6898 1019.38 16.0829C1014.34 13.6553 1009.19 13.4241 1003.86 13.901C998.48 12.3692 992.895 12.3548 987.411 11.6034C982.403 10.917 977.222 13.4891 972.474 10.9893C968.03 8.64836 963.159 7.49958 958.447 7.08053C945.777 5.96787 933.423 2.98394 920.883 1.19213C910.102 -0.354026 899.503 0.166176 888.809 0C886.774 0.570777 884.739 1.14155 882.705 1.71233C875.994 1.17045 869.197 -0.274551 862.999 3.91597C862.595 4.19052 861.859 3.90152 861.303 4.00989C854.448 5.3393 847.276 4.77574 840.71 7.86083C836.986 9.60929 833.299 11.8635 829.071 11.9502C826.12 12.0152 823.414 12.4921 820.823 13.8287C819.546 13.8359 818.32 13.9588 817.035 14.2405C808.874 16.0107 801.428 19.6449 793.801 22.8094C787.35 22.5565 780.921 22.5999 774.615 24.2472C772.977 21.6028 775.726 22.1086 776.7 21.4583C777.847 20.6925 780.358 21.3211 779.665 18.7562C779.088 16.6176 777.118 17.2245 775.625 17.3039C769.621 17.6363 763.892 20.3312 757.672 19.1535C755.291 18.7056 752.722 18.8356 750.283 19.1174C744.439 19.7966 738.255 20.2229 733.42 23.6836C730.137 26.0318 727.265 25.75 723.795 25.5983C717.928 25.3454 711.99 23.2357 706.254 24.5868C696.599 26.8699 687.421 26.2702 678.178 22.8817C673.733 21.2488 669.05 19.7243 664.208 21.256C662.938 21.6534 662.484 20.967 662.31 20.3096C661.517 17.3401 659.431 18.0264 657.44 18.4383C653.637 19.2258 649.878 20.3457 646.046 20.8009C634.963 22.1158 623.815 21.6173 612.688 21.769C606.93 21.8557 601.172 22.4482 595.551 19.7243C591.005 17.5279 585.789 19.6665 580.94 18.9946C573.349 17.9325 565.83 17.2317 558.528 20.4179C558.016 20.6419 557.373 20.837 556.839 20.7431C550.136 19.5871 544.926 22.5854 540.106 26.6965C537.184 27.8091 534.76 29.9477 531.448 30.3596C522.695 31.4505 513.813 33.2062 505.197 30.9881C499.352 29.4781 493.544 28.7917 487.67 28.705C483.298 28.6472 479.307 28.0042 475.382 26.0679C474.228 25.4971 472.186 25.4393 471.147 26.0968C464.948 30.0272 458.036 29.3264 451.26 29.572C444.867 28.575 438.359 28.351 432.153 26.1618C430.205 25.4754 426.272 25.461 426.691 27.3829C427.723 32.0864 424.627 30.2006 423.098 30.2729C409.352 30.952 395.736 28.4377 381.983 28.6689C373.981 28.8062 366.289 26.2485 358.669 23.8715C351.879 21.7546 344.981 20.1506 337.946 19.1102C334.641 18.5177 331.336 17.8747 328.017 17.3617C325.896 17.0294 323.269 16.502 321.934 18.301C320.217 20.613 317.973 20.2084 316.299 19.6738C313.579 18.8067 310.988 19.0452 308.319 19.1535C296.745 15.5988 284.622 16.5742 272.868 16.1263C264.902 15.8228 255.255 13.2507 248.147 20.5624C243.695 20.1 239.59 18.3732 235.354 17.1305C231.869 13.3374 227.85 12.1236 222.712 13.5831C220.36 14.2478 217.228 16.0901 215.165 12.3692C214.732 11.5817 213.296 12.1453 212.307 12.3548C209.414 12.9762 206.506 13.5397 203.605 14.1249C197.595 14.8113 191.62 15.5266 185.53 15.5772C177.34 15.6422 169.143 15.0064 160.918 16.2997C149.098 18.1637 137.178 19.4281 125.28 20.7214C110.92 22.282 96.4603 21.6173 82.0795 22.5493C80.3478 22.6577 80.0736 21.3861 79.1572 20.7069C78.8108 19.8327 79.9653 18.4455 78.2408 18.0481C76.1338 19.7966 75.7081 18.4816 75.5927 16.5959C73.5723 17.3906 73.3414 19.5437 72.2302 21.0321C65.6856 21.5884 59.1988 19.97 52.5171 21.4222C46.391 22.7516 39.8464 21.7112 33.7276 20.4685C30.3795 19.7894 26.8871 20.8587 23.705 19.1174C20.3281 17.2823 16.6554 16.7548 12.8383 17.3979C11.3158 17.1594 9.83659 16.9138 8.3141 16.4153C4.25169 15.0931 0.247015 12.5788 -4.21946 13.8793C-7.11293 14.7174 -9.73221 14.9703 -12.5607 13.8648C-14.8842 12.9545 -16.1686 13.8359 -15.916 16.4803C-15.7645 18.0337 -15.8727 19.5437 -15.4614 21.1477C-14.2275 25.9162 -12.9576 30.7497 -12.5752 35.6266C-12.1206 41.4861 -11.7309 47.4684 -14.1843 53.1618C-15.7212 56.7381 -15.1656 60.5024 -14.6244 64.216C-13.9822 68.6811 -13.3328 73.1534 -14.812 77.5896C-15.6202 80.0389 -15.7717 82.1197 -12.4741 82.6543C-12.0629 84.9085 -13.4338 86.722 -14.0039 88.7378C-13.1236 92.5743 -15.6635 96.1579 -14.8264 99.9944C-13.6647 104.033 -12.705 108.079 -14.0399 112.277C-15.4759 114.676 -11.2691 116.634 -13.1019 118.476C-15.916 121.308 -16.1036 123.591 -13.506 126.503C-12.972 127.103 -13.2823 128.468 -13.2462 129.48C-12.8782 139.443 -12.5247 149.399 -12.1711 159.362C-12.402 164.904 -10.9156 170.446 -12.3154 176.009C-12.6473 177.324 -12.4525 178.964 -11.9763 180.257C-11.2042 182.352 -11.3196 184.26 -12.3371 186.109C-13.607 188.407 -13.3545 190.871 -13.138 193.248C-12.7989 197.063 -12.9432 200.885 -13.5348 204.584C-14.4584 210.342 -14.711 216.144 -14.0111 221.808C-13.2462 228 -13.6287 234.17 -13.4916 240.319C-13.4194 243.78 -14.4945 247.24 -13.34 250.795C-12.705 252.739 -13.2823 254.639 -15.5336 255.318C-18.023 256.069 -18.1168 258.114 -17.5828 259.819C-15.8511 265.325 -15.9737 271.184 -14.6028 276.596C-12.568 284.652 -13.8596 292.079 -17.2076 298.885C-19.8702 304.289 -19.6104 308.176 -15.8871 312.468C-13.6287 315.069 -13.607 317.648 -15.8944 320.625C-20.267 326.326 -23.7378 332.554 -22.8647 340.154C-22.4462 343.846 -21.6236 347.502 -20.9814 351.172C-20.0217 354.547 -19.0981 358.015 -16.5005 360.514C-15.3243 361.656 -14.9708 362.812 -14.877 364.257C-14.6749 366.54 -17.4746 367.906 -16.7458 370.355C-18.3765 373.1 -20.1877 375.774 -18.1384 379.162C-15.7356 383.143 -14.8553 387.543 -14.9058 392.153C-15.4542 396.278 -14.2203 400.288 -14.141 404.37C-14.141 411.046 -14.1337 417.729 -14.1265 424.413C-14.2203 425.915 -14.6316 427.462 -13.4771 428.777C-11.8753 428.842 -10.4393 429.586 -10.295 431.125C-10.1507 432.534 -11.6011 432.143 -12.5463 432.151C-12.9071 434.434 -14.7615 435.077 -16.5726 435.749C-14.7976 441.189 -10.6486 445.517 -9.97032 452.222C-7.74791 448.226 -7.79842 448.284 -4.77507 450.668C-4.04629 451.239 -2.89179 451.456 -1.91768 451.492C1.80559 451.629 5.51443 451.81 9.23048 452.077C12.9465 452.352 16.8646 454.779 20.2776 452.959C24.2174 450.863 28.1282 451.759 32.0607 451.456C36.9169 451.08 41.7658 451.615 46.6868 450.733C53.217 449.563 59.3575 445.199 66.4649 447.916C66.8473 448.067 67.4679 447.489 68.009 447.345C73.0023 446.001 77.9883 444.534 82.462 441.897C89.1436 437.952 96.2655 437.093 103.914 437.389C116.606 437.887 129.349 437.215 141.962 439.26C145.18 439.78 148.131 441.543 151.595 441.016C154.164 440.618 156.689 441.088 159.316 442.685C159.092 441.276 159.72 440.308 158.868 439.108C157.959 437.829 158.176 436.543 160.239 436.681C167.606 437.165 174.808 435.734 182.088 435.005C192.803 433.942 203.598 436.11 214.349 434.918C224.458 433.798 233.99 436.587 243.63 438.899C252.433 441.008 261.359 442.612 268.755 448.378C269.809 449.202 271.115 449.122 272.038 448.501C277.32 444.946 282.667 446.348 288.165 447.807C289.45 448.154 291.622 449.079 292.675 446.839C293.7 444.672 295.655 444.578 297.683 444.462C309.069 443.826 320.455 443.147 331.841 442.49C337.636 443.675 343.437 443.566 349.246 442.576C352.796 443.255 355.819 440.72 359.477 441.131C365.502 441.803 371.542 441.442 377.574 440.286C380.273 439.766 383.57 439.123 385.937 441.319C388.066 443.299 390.036 442.873 392.309 442.027C398.601 439.701 404.994 439.397 411.495 441.124C421.099 443.675 430.775 444.693 440.509 441.904C445.784 440.387 450.683 440.344 454.875 444.52C457.87 447.511 461.759 447.728 465.396 446.882C468.044 446.268 470.764 446.037 473.391 445.575C476.652 444.99 480.707 444.043 483.442 446.247C486.761 448.92 490.196 449.859 494.157 449.693C499.764 449.469 505.046 450.9 510.291 452.597C514.022 453.797 517.608 454.331 521.605 453.002C529.326 450.444 537.213 448.486 544.768 453.862C546.16 454.859 547.892 455.09 549.689 454.924C560.303 453.949 570.896 454.187 581.452 455.769C583.097 456.015 585.37 456.434 586.243 454.722C588.942 449.455 594.418 450.531 598.611 448.645C606.18 445.235 614.694 450.206 621.989 445.495C622.646 445.076 623.945 445.726 624.955 445.755C629.443 445.893 632.524 449.202 636.305 450.914C639.206 452.229 641.407 452.475 643.55 449.794C644.776 448.262 646.292 447.518 648.521 448.154C656.192 450.35 664.093 450.733 672.008 450.509C674.635 450.43 677.478 450.126 678.69 447.005C679.137 445.857 679.967 445.987 681.1 445.965C685.552 445.864 689.99 445.43 694.434 445.12C703.88 444.722 713.39 440.98 722.734 445.994C724.278 446.817 726.385 446.543 727.1 444.13C727.605 442.417 729.336 443.53 729.409 443.761C730.686 447.966 735.094 447.872 737.822 450.025C740.29 451.962 742.815 452.034 745.362 450.105C747.267 448.66 749.259 448.277 751.38 449.715C752.636 450.567 754.1 450.488 755.551 450.611C761.078 451.087 766.511 449.939 771.916 449.332C775.899 448.884 780.091 447.302 783.418 445.076C785.409 443.74 786.405 443.017 788.36 444.383C789.645 445.279 791.109 444.968 792.567 444.888C801.507 444.411 810.498 444.455 818.781 448.241C824.301 450.762 829.951 451.217 835.594 450.408C839.988 449.772 843.921 449.816 848.207 451.16C853.546 452.843 855.891 451.044 857.378 445.589C858.07 443.031 859.752 443.198 861.787 443.942C864.593 444.968 867.4 445.726 866.967 440.965C866.823 439.303 867.941 438.574 869.291 438.357C870.373 438.176 871.852 437.974 872.242 439.441C873.346 443.552 875.778 441.659 877.978 440.813C879.407 440.264 880.511 438.92 882.293 439.231C891.161 440.785 898.031 432.591 906.913 434.152C907.05 434.174 907.216 434.137 907.339 434.072C911.098 432.136 915.276 431.992 919.317 431.233C922.419 431.32 925.299 430.222 928.156 429.326C939.831 425.663 951.441 424.167 962.935 429.795C967.077 431.826 971.096 434.116 975.188 436.269C977.569 437.519 980.231 438.314 982.677 437.136C987.346 434.896 991.668 435.857 995.954 437.866C1001.85 440.64 1007.88 442.685 1014.51 441.818C1017.46 441.435 1020.57 439.787 1023.28 440.329C1029.7 441.615 1035.91 440.712 1042.21 440.033C1042.06 437.605 1043.66 436.854 1045.63 436.681C1048.1 436.464 1049.67 437.584 1050.06 440.12C1064.87 441.803 1079.78 440.243 1094.66 441.644C1106.59 442.764 1118.71 441.883 1130.73 441.868C1132.31 441.868 1133.85 442.006 1135.4 441.24C1139.57 439.195 1143.94 439.549 1147.92 441.514C1150.66 442.873 1153.2 443.039 1155.83 442.013C1158.46 440.987 1161.08 440.792 1163.87 440.965C1166.76 441.153 1169.74 441.312 1172.55 440.792C1178.55 439.686 1184.13 440.091 1189.22 443.754C1190.52 444.686 1192.13 445.322 1192.48 443.06C1193.06 439.289 1195.81 439.636 1198.03 440.286C1201.05 441.175 1203.96 440.864 1206.94 440.662C1207.2 434.607 1211.86 437.259 1214.88 436.652C1217 436.406 1219.08 436.724 1221.28 436.081C1231.29 433.169 1241.34 433.422 1251.32 436.471C1257.82 438.458 1264.58 437.952 1271.06 437.186C1276.46 436.551 1281.31 436.681 1285.97 439.347C1287.8 440.394 1289.81 440.705 1291.32 439.672C1297.08 435.749 1303.66 436.811 1309.42 437.909C1319.66 439.867 1329.92 440.322 1340.21 440.712C1350.75 441.11 1360.88 437.468 1371.37 437.136C1378.41 436.919 1385.24 436.088 1392.01 439.925C1405.67 447.663 1420.19 448.371 1434.86 442.75C1437.84 441.615 1440.32 441.904 1443.09 443.14C1448.17 445.409 1453.38 447.215 1459.13 447.143C1462.6 447.099 1464.52 446.348 1464.16 442.295C1463.82 438.704 1464.14 435.048 1464.17 431.421C1465.27 429.398 1464.26 427.324 1464.26 425.287Z" fill="black"/>
</svg>
