<svg width="16" height="24" viewBox="0 0 16 24" fill="none" xmlns="http://www.w3.org/2000/svg">
<path d="M15.9877 15.4992C16.0463 17.8475 15.2966 19.723 13.9143 21.2672C11.7649 23.6674 9.07197 24.5116 6.0252 23.7003C2.93212 22.8771 0.971424 20.6949 0.23223 17.5034C-0.218626 15.5576 -0.0360116 13.5653 0.982782 11.7419C2.6298 8.79217 4.24013 5.81875 5.8688 2.8572C6.26461 2.13621 6.67178 1.42161 7.06846 0.701525C7.56737 -0.206561 8.42365 -0.24398 8.92518 0.653155C10.5285 3.5207 12.117 6.39646 13.7046 9.27313C14.2542 10.2697 14.8178 11.26 15.3149 12.2849C15.8287 13.3436 16.0576 14.4862 15.9877 15.4992ZM4.00684 9.91746C3.78228 10.3263 3.5621 10.7106 3.35764 11.103C2.75825 12.2548 2.02779 13.3408 1.87925 14.7043C1.70537 16.3078 1.95527 17.7891 2.79407 19.1681C4.6071 22.1461 8.36161 22.9592 11.1655 21.29C11.8916 20.8574 12.2804 20.2998 12.318 19.4035C12.3765 18.0063 11.9562 16.8582 10.9584 15.9191C10.096 15.1068 9.051 14.6651 8.006 14.1987C6.39742 13.4823 5.07369 12.4254 4.35284 10.6859C4.24887 10.4358 4.25061 10.1246 4.00596 9.91655L4.00684 9.91746ZM13.9344 17.4587C14.1991 16.944 14.2035 16.411 14.228 15.9008C14.29 14.5838 13.9292 13.3718 13.3009 12.2347C12.4586 10.7087 11.6321 9.17365 10.7933 7.64588C10.041 6.27508 9.28342 4.90702 8.52326 3.54169C8.27773 3.10088 7.86532 3.00323 7.66086 3.37468C6.98982 4.59398 6.16413 5.7357 5.87754 7.15761C5.45115 9.27587 5.992 10.7306 7.68358 11.9801C8.33191 12.4592 9.09993 12.6645 9.80592 13.0123C11.3411 13.7688 12.6902 14.7335 13.4704 16.3964C13.6277 16.7322 13.7203 17.1 13.9344 17.4596V17.4587Z" fill="black"/>
</svg>
