<svg width="24" height="43" viewBox="0 0 24 43" fill="none" xmlns="http://www.w3.org/2000/svg">
<path d="M23.8953 16.2417V22.6876C23.8953 22.7345 23.8953 22.7814 23.8928 22.8308C23.8681 23.6878 23.8558 24.5423 23.8509 25.3993C23.8385 27.422 23.8657 29.4447 23.8657 31.4674H23.8731C23.8731 34.347 23.8805 37.2242 23.8706 40.1039C23.8657 41.845 23.5374 42.1562 21.7626 42.1636C19.5016 42.171 17.2431 42.1908 14.982 42.1735C13.4319 42.1612 13.0518 41.7759 12.9136 40.2299L12.5038 37.6391L12.3162 40.0743C12.3138 40.3533 12.3113 40.6275 12.3064 40.9041C12.2915 41.7685 11.7929 42.1587 10.9636 42.1636C8.04351 42.1784 5.1259 42.213 2.20831 42.1908C0.996344 42.1809 0.213876 41.4079 0.204003 40.1533C0.169446 35.3275 0.174384 30.5017 0.159574 25.6759V22.0455L0.154633 21.0403V19.7906C0.401468 19.0991 0.157106 17.9952 0.159574 17.1258C0.166979 14.7204 0.169445 12.3124 0.171913 9.90444C0.17685 7.66195 0.179317 5.41947 0.186722 3.17698C0.191659 1.27778 0.779124 0.672708 2.69704 0.652951C5.27153 0.625784 7.84851 0.633192 10.423 0.640601C11.7411 0.645541 12.3187 1.11726 12.4273 2.43854C12.5162 3.51533 12.447 4.60446 12.447 5.68866C13.1407 4.87613 12.9259 3.97963 12.9555 3.12265C13.0222 1.23827 13.5973 0.65048 15.5029 0.640601C17.517 0.630723 19.5312 0.623314 21.5454 0.625784C23.2757 0.628254 23.8657 1.18641 23.8681 2.88309C23.8731 7.32113 23.8558 11.7567 23.8657 16.1948L23.8953 16.2417Z" fill="black"/>
</svg>
