<svg width="1440" height="228" viewBox="0 0 1440 228" fill="none" xmlns="http://www.w3.org/2000/svg">
<g filter="url(#filter0_d_503_681)">
<path d="M1464.26 475.287C1464.3 450.303 1464.13 425.319 1464.23 400.327C1464.53 332.975 1465.2 265.631 1464.94 198.272C1464.86 177.948 1464.98 157.617 1464.81 137.293C1464.73 127.893 1464.2 118.493 1463.87 109.094C1463.91 104.636 1464.04 100.171 1463.98 95.7128C1463.9 89.6943 1464.52 83.647 1463.3 77.6719C1463.54 76.1691 1463.52 74.5362 1461.72 74.2472C1458.99 73.8065 1456.3 74.0882 1454.56 76.7543C1449.93 75.5983 1445.24 75.8728 1440.54 76.1546C1439.57 75.8656 1438.55 75.685 1437.64 75.2731C1434.74 73.9799 1432.07 73.1345 1428.56 73.279C1421.21 73.5753 1413.74 72.6938 1410.15 64.3778C1409.51 62.9256 1408.11 61.7045 1406.23 62.7161C1402.35 64.7896 1398.32 66.3069 1394.01 67.3184C1389.7 68.3299 1385.35 69.2691 1381.23 67.5135C1375.67 65.1509 1369.66 65.4543 1363.99 63.8504C1359.74 62.651 1355.43 61.6034 1350.85 61.9935C1344.09 62.5643 1337.06 62.138 1330.67 60.8086C1319.65 58.5111 1308.17 61.6106 1297.44 56.9505C1292.84 54.9564 1287.88 55.3248 1282.58 56.4664C1276.32 57.8103 1269.69 58.1426 1263.48 59.8911C1253.36 62.7522 1242.97 62.8172 1232.94 61.7118C1227.68 61.1338 1224.7 62.7522 1221.25 65.1798C1218.13 67.3762 1215.15 67.2245 1211.47 66.5814C1202.57 65.0208 1193.43 62.8822 1184.69 67.434C1182.97 68.3299 1181.62 67.4629 1180.11 67.3328C1170.98 66.5598 1161.99 63.7709 1152.68 65.5844C1148.11 66.4731 1143.74 68.3082 1139.36 69.3559C1131.95 71.126 1124.04 70.8009 1116.33 71.1982C1110.07 71.5234 1103.75 70.7358 1097.55 72.2531C1096.65 72.4771 1095.38 72.86 1094.96 71.5378C1094.48 70.0278 1095.69 69.9772 1096.74 69.8616C1097.39 69.7966 1098.21 70.0278 1098.69 68.5322C1093.82 67.0005 1088.31 65.2954 1084.25 68.1204C1079.85 71.1693 1075.64 70.678 1071.16 70.8009C1068.67 70.8731 1065.94 71.4656 1063.8 71.2633C1058.95 70.8081 1054.35 68.3082 1049.26 68.4527C1049.03 68.4599 1048.63 67.8241 1048.56 67.4412C1048.35 66.2419 1047.5 66.3286 1046.62 66.2419C1041.55 65.7506 1036.52 65.1942 1031.66 63.3519C1029.49 62.5282 1025.48 61.9068 1024.98 64.0455C1023.91 68.5466 1020.62 66.6898 1019.38 66.0829C1014.34 63.6553 1009.19 63.4241 1003.86 63.901C998.48 62.3692 992.895 62.3548 987.411 61.6034C982.403 60.917 977.222 63.4891 972.474 60.9893C968.03 58.6484 963.159 57.4996 958.447 57.0805C945.777 55.9679 933.423 52.9839 920.883 51.1921C910.102 49.646 899.503 50.1662 888.809 50C886.774 50.5708 884.739 51.1416 882.705 51.7123C875.994 51.1705 869.197 49.7254 862.999 53.916C862.595 54.1905 861.859 53.9015 861.303 54.0099C854.448 55.3393 847.276 54.7757 840.71 57.8608C836.986 59.6093 833.299 61.8635 829.071 61.9502C826.12 62.0152 823.414 62.4921 820.823 63.8287C819.546 63.8359 818.32 63.9588 817.035 64.2405C808.874 66.0107 801.428 69.6449 793.801 72.8094C787.35 72.5565 780.921 72.5999 774.615 74.2472C772.977 71.6028 775.726 72.1086 776.7 71.4583C777.847 70.6925 780.358 71.3211 779.665 68.7562C779.088 66.6176 777.118 67.2245 775.625 67.3039C769.621 67.6363 763.892 70.3312 757.672 69.1535C755.291 68.7056 752.722 68.8356 750.283 69.1174C744.439 69.7966 738.255 70.2229 733.42 73.6836C730.137 76.0318 727.265 75.75 723.795 75.5983C717.928 75.3454 711.99 73.2357 706.254 74.5868C696.599 76.8699 687.421 76.2702 678.178 72.8817C673.733 71.2488 669.05 69.7243 664.208 71.256C662.938 71.6534 662.484 70.967 662.31 70.3096C661.517 67.3401 659.431 68.0264 657.44 68.4383C653.637 69.2258 649.878 70.3457 646.046 70.8009C634.963 72.1158 623.815 71.6173 612.688 71.769C606.93 71.8557 601.172 72.4482 595.551 69.7243C591.005 67.5279 585.789 69.6665 580.94 68.9946C573.349 67.9325 565.83 67.2317 558.528 70.4179C558.016 70.6419 557.373 70.837 556.839 70.7431C550.136 69.5871 544.926 72.5854 540.106 76.6965C537.184 77.8091 534.76 79.9477 531.448 80.3596C522.695 81.4505 513.813 83.2062 505.197 80.9881C499.352 79.4781 493.544 78.7917 487.67 78.705C483.298 78.6472 479.307 78.0042 475.382 76.0679C474.228 75.4971 472.186 75.4393 471.147 76.0968C464.948 80.0272 458.036 79.3264 451.26 79.572C444.867 78.575 438.359 78.351 432.153 76.1618C430.205 75.4754 426.272 75.461 426.691 77.3829C427.723 82.0864 424.627 80.2006 423.098 80.2729C409.352 80.952 395.736 78.4377 381.983 78.6689C373.981 78.8062 366.289 76.2485 358.669 73.8715C351.879 71.7546 344.981 70.1506 337.946 69.1102C334.641 68.5177 331.336 67.8747 328.017 67.3617C325.896 67.0294 323.269 66.502 321.934 68.301C320.217 70.613 317.973 70.2084 316.299 69.6738C313.579 68.8067 310.988 69.0452 308.319 69.1535C296.745 65.5988 284.622 66.5742 272.868 66.1263C264.902 65.8228 255.255 63.2507 248.147 70.5624C243.695 70.1 239.59 68.3732 235.354 67.1305C231.869 63.3374 227.85 62.1236 222.712 63.5831C220.36 64.2478 217.228 66.0901 215.165 62.3692C214.732 61.5817 213.296 62.1453 212.307 62.3548C209.414 62.9762 206.506 63.5397 203.605 64.1249C197.595 64.8113 191.62 65.5266 185.53 65.5772C177.34 65.6422 169.143 65.0064 160.918 66.2997C149.098 68.1637 137.178 69.4281 125.28 70.7214C110.92 72.282 96.4603 71.6173 82.0795 72.5493C80.3478 72.6577 80.0736 71.3861 79.1572 70.7069C78.8108 69.8327 79.9653 68.4455 78.2408 68.0481C76.1338 69.7966 75.7081 68.4816 75.5927 66.5959C73.5723 67.3906 73.3414 69.5437 72.2302 71.0321C65.6856 71.5884 59.1988 69.97 52.5171 71.4222C46.391 72.7516 39.8464 71.7112 33.7276 70.4685C30.3795 69.7894 26.8871 70.8587 23.705 69.1174C20.3281 67.2823 16.6554 66.7548 12.8383 67.3979C11.3158 67.1594 9.83659 66.9138 8.3141 66.4153C4.25169 65.0931 0.247015 62.5788 -4.21946 63.8793C-7.11293 64.7174 -9.73221 64.9703 -12.5607 63.8648C-14.8842 62.9545 -16.1686 63.8359 -15.916 66.4803C-15.7645 68.0337 -15.8727 69.5437 -15.4614 71.1477C-14.2275 75.9162 -12.9576 80.7497 -12.5752 85.6266C-12.1206 91.4861 -11.7309 97.4684 -14.1843 103.162C-15.7212 106.738 -15.1656 110.502 -14.6244 114.216C-13.9822 118.681 -13.3328 123.153 -14.812 127.59C-15.6202 130.039 -15.7717 132.12 -12.4741 132.654C-12.0629 134.909 -13.4338 136.722 -14.0039 138.738C-13.1236 142.574 -15.6635 146.158 -14.8264 149.994C-13.6647 154.033 -12.705 158.079 -14.0399 162.277C-15.4759 164.676 -11.2691 166.634 -13.1019 168.476C-15.916 171.308 -16.1036 173.591 -13.506 176.503C-12.972 177.103 -13.2823 178.468 -13.2462 179.48C-12.8782 189.443 -12.5247 199.399 -12.1711 209.362C-12.402 214.904 -10.9156 220.446 -12.3154 226.009C-12.6473 227.324 -12.4525 228.964 -11.9763 230.257C-11.2042 232.352 -11.3196 234.26 -12.3371 236.109C-13.607 238.407 -13.3545 240.871 -13.138 243.248C-12.7989 247.063 -12.9432 250.885 -13.5348 254.584C-14.4584 260.342 -14.711 266.144 -14.0111 271.808C-13.2462 278 -13.6287 284.17 -13.4916 290.319C-13.4194 293.78 -14.4945 297.24 -13.34 300.795C-12.705 302.739 -13.2823 304.639 -15.5336 305.318C-18.023 306.069 -18.1168 308.114 -17.5828 309.819C-15.8511 315.325 -15.9737 321.184 -14.6028 326.596C-12.568 334.652 -13.8596 342.079 -17.2076 348.885C-19.8702 354.289 -19.6104 358.176 -15.8871 362.468C-13.6287 365.069 -13.607 367.648 -15.8944 370.625C-20.267 376.326 -23.7378 382.554 -22.8647 390.154C-22.4462 393.846 -21.6236 397.502 -20.9814 401.172C-20.0217 404.547 -19.0981 408.015 -16.5005 410.514C-15.3243 411.656 -14.9708 412.812 -14.877 414.257C-14.6749 416.54 -17.4746 417.906 -16.7458 420.355C-18.3765 423.1 -20.1877 425.774 -18.1384 429.162C-15.7356 433.143 -14.8553 437.543 -14.9058 442.153C-15.4542 446.278 -14.2203 450.288 -14.141 454.37C-14.141 461.046 -14.1337 467.729 -14.1265 474.413C-14.2203 475.915 -14.6316 477.462 -13.4771 478.777C-11.8753 478.842 -10.4393 479.586 -10.295 481.125C-10.1507 482.534 -11.6011 482.143 -12.5463 482.151C-12.9071 484.434 -14.7615 485.077 -16.5726 485.749C-14.7976 491.189 -10.6486 495.517 -9.97032 502.222C-7.74791 498.226 -7.79842 498.284 -4.77507 500.668C-4.04629 501.239 -2.89179 501.456 -1.91768 501.492C1.80559 501.629 5.51443 501.81 9.23048 502.077C12.9465 502.352 16.8646 504.779 20.2776 502.959C24.2174 500.863 28.1282 501.759 32.0607 501.456C36.9169 501.08 41.7658 501.615 46.6868 500.733C53.217 499.563 59.3575 495.199 66.4649 497.916C66.8473 498.067 67.4679 497.489 68.009 497.345C73.0023 496.001 77.9883 494.534 82.462 491.897C89.1436 487.952 96.2655 487.093 103.914 487.389C116.606 487.887 129.349 487.215 141.962 489.26C145.18 489.78 148.131 491.543 151.595 491.016C154.164 490.618 156.689 491.088 159.316 492.685C159.092 491.276 159.72 490.308 158.868 489.108C157.959 487.829 158.176 486.543 160.239 486.681C167.606 487.165 174.808 485.734 182.088 485.005C192.803 483.942 203.598 486.11 214.349 484.918C224.458 483.798 233.99 486.587 243.63 488.899C252.433 491.008 261.359 492.612 268.755 498.378C269.809 499.202 271.115 499.122 272.038 498.501C277.32 494.946 282.667 496.348 288.165 497.807C289.45 498.154 291.622 499.079 292.675 496.839C293.7 494.672 295.655 494.578 297.683 494.462C309.069 493.826 320.455 493.147 331.841 492.49C337.636 493.675 343.437 493.566 349.246 492.576C352.796 493.255 355.819 490.72 359.477 491.131C365.502 491.803 371.542 491.442 377.574 490.286C380.273 489.766 383.57 489.123 385.937 491.319C388.066 493.299 390.036 492.873 392.309 492.027C398.601 489.701 404.994 489.397 411.495 491.124C421.099 493.675 430.775 494.693 440.509 491.904C445.784 490.387 450.683 490.344 454.875 494.52C457.87 497.511 461.759 497.728 465.396 496.882C468.044 496.268 470.764 496.037 473.391 495.575C476.652 494.99 480.707 494.043 483.442 496.247C486.761 498.92 490.196 499.859 494.157 499.693C499.764 499.469 505.046 500.9 510.291 502.597C514.022 503.797 517.608 504.331 521.605 503.002C529.326 500.444 537.213 498.486 544.768 503.862C546.16 504.859 547.892 505.09 549.689 504.924C560.303 503.949 570.896 504.187 581.452 505.769C583.097 506.015 585.37 506.434 586.243 504.722C588.942 499.455 594.418 500.531 598.611 498.645C606.18 495.235 614.694 500.206 621.989 495.495C622.646 495.076 623.945 495.726 624.955 495.755C629.443 495.893 632.524 499.202 636.305 500.914C639.206 502.229 641.407 502.475 643.55 499.794C644.776 498.262 646.292 497.518 648.521 498.154C656.192 500.35 664.093 500.733 672.008 500.509C674.635 500.43 677.478 500.126 678.69 497.005C679.137 495.857 679.967 495.987 681.1 495.965C685.552 495.864 689.99 495.43 694.434 495.12C703.88 494.722 713.39 490.98 722.734 495.994C724.278 496.817 726.385 496.543 727.1 494.13C727.605 492.417 729.336 493.53 729.409 493.761C730.686 497.966 735.094 497.872 737.822 500.025C740.29 501.962 742.815 502.034 745.362 500.105C747.267 498.66 749.259 498.277 751.38 499.715C752.636 500.567 754.1 500.488 755.551 500.611C761.078 501.087 766.511 499.939 771.916 499.332C775.899 498.884 780.091 497.302 783.418 495.076C785.409 493.74 786.405 493.017 788.36 494.383C789.645 495.279 791.109 494.968 792.567 494.888C801.507 494.411 810.498 494.455 818.781 498.241C824.301 500.762 829.951 501.217 835.594 500.408C839.988 499.772 843.921 499.816 848.207 501.16C853.546 502.843 855.891 501.044 857.378 495.589C858.07 493.031 859.752 493.198 861.787 493.942C864.593 494.968 867.4 495.726 866.967 490.965C866.823 489.303 867.941 488.574 869.291 488.357C870.373 488.176 871.852 487.974 872.242 489.441C873.346 493.552 875.778 491.659 877.978 490.813C879.407 490.264 880.511 488.92 882.293 489.231C891.161 490.785 898.031 482.591 906.913 484.152C907.05 484.174 907.216 484.137 907.339 484.072C911.098 482.136 915.276 481.992 919.317 481.233C922.419 481.32 925.299 480.222 928.156 479.326C939.831 475.663 951.441 474.167 962.935 479.795C967.077 481.826 971.096 484.116 975.188 486.269C977.569 487.519 980.231 488.314 982.677 487.136C987.346 484.896 991.668 485.857 995.954 487.866C1001.85 490.64 1007.88 492.685 1014.51 491.818C1017.46 491.435 1020.57 489.787 1023.28 490.329C1029.7 491.615 1035.91 490.712 1042.21 490.033C1042.06 487.605 1043.66 486.854 1045.63 486.681C1048.1 486.464 1049.67 487.584 1050.06 490.12C1064.87 491.803 1079.78 490.243 1094.66 491.644C1106.59 492.764 1118.71 491.883 1130.73 491.868C1132.31 491.868 1133.85 492.006 1135.4 491.24C1139.57 489.195 1143.94 489.549 1147.92 491.514C1150.66 492.873 1153.2 493.039 1155.83 492.013C1158.46 490.987 1161.08 490.792 1163.87 490.965C1166.76 491.153 1169.74 491.312 1172.55 490.792C1178.55 489.686 1184.13 490.091 1189.22 493.754C1190.52 494.686 1192.13 495.322 1192.48 493.06C1193.06 489.289 1195.81 489.636 1198.03 490.286C1201.05 491.175 1203.96 490.864 1206.94 490.662C1207.2 484.607 1211.86 487.259 1214.88 486.652C1217 486.406 1219.08 486.724 1221.28 486.081C1231.29 483.169 1241.34 483.422 1251.32 486.471C1257.82 488.458 1264.58 487.952 1271.06 487.186C1276.46 486.551 1281.31 486.681 1285.97 489.347C1287.8 490.394 1289.81 490.705 1291.32 489.672C1297.08 485.749 1303.66 486.811 1309.42 487.909C1319.66 489.867 1329.92 490.322 1340.21 490.712C1350.75 491.11 1360.88 487.468 1371.37 487.136C1378.41 486.919 1385.24 486.088 1392.01 489.925C1405.67 497.663 1420.19 498.371 1434.86 492.75C1437.84 491.615 1440.32 491.904 1443.09 493.14C1448.17 495.409 1453.38 497.215 1459.13 497.143C1462.6 497.099 1464.52 496.348 1464.16 492.295C1463.82 488.704 1464.14 485.048 1464.17 481.421C1465.27 479.398 1464.26 477.324 1464.26 475.287Z" fill="black"/>
</g>
<defs>
<filter id="filter0_d_503_681" x="-61" y="0" width="1564" height="532" filterUnits="userSpaceOnUse" color-interpolation-filters="sRGB">
<feFlood flood-opacity="0" result="BackgroundImageFix"/>
<feColorMatrix in="SourceAlpha" type="matrix" values="0 0 0 0 0 0 0 0 0 0 0 0 0 0 0 0 0 0 127 0" result="hardAlpha"/>
<feOffset dy="-12"/>
<feGaussianBlur stdDeviation="19"/>
<feComposite in2="hardAlpha" operator="out"/>
<feColorMatrix type="matrix" values="0 0 0 0 0 0 0 0 0 0 0 0 0 0 0 0 0 0 0.25 0"/>
<feBlend mode="normal" in2="BackgroundImageFix" result="effect1_dropShadow_503_681"/>
<feBlend mode="normal" in="SourceGraphic" in2="effect1_dropShadow_503_681" result="shape"/>
</filter>
</defs>
</svg>
